<svg width="500" height="500" viewBox="0 0 500 500" fill="none" xmlns="http://www.w3.org/2000/svg">
<g clip-path="url(#clip0_33_2)">
<path d="M500 0H0V500H500V0Z" fill="white"/>
<path d="M32.1379 16H16V32.1379H32.1379V16Z" fill="black"/>
<path d="M48.2759 16H32.1379V32.1379H48.2759V16Z" fill="black"/>
<path d="M64.4138 16H48.2759V32.1379H64.4138V16Z" fill="black"/>
<path d="M80.5517 16H64.4138V32.1379H80.5517V16Z" fill="black"/>
<path d="M96.6897 16H80.5517V32.1379H96.6897V16Z" fill="black"/>
<path d="M112.828 16H96.6897V32.1379H112.828V16Z" fill="black"/>
<path d="M128.966 16H112.828V32.1379H128.966V16Z" fill="black"/>
<path d="M161.241 16H145.103V32.1379H161.241V16Z" fill="black"/>
<path d="M322.621 16H306.483V32.1379H322.621V16Z" fill="black"/>
<path d="M387.172 16H371.034V32.1379H387.172V16Z" fill="black"/>
<path d="M403.31 16H387.172V32.1379H403.31V16Z" fill="black"/>
<path d="M419.448 16H403.31V32.1379H419.448V16Z" fill="black"/>
<path d="M435.586 16H419.448V32.1379H435.586V16Z" fill="black"/>
<path d="M451.724 16H435.586V32.1379H451.724V16Z" fill="black"/>
<path d="M467.862 16H451.724V32.1379H467.862V16Z" fill="black"/>
<path d="M484 16H467.862V32.1379H484V16Z" fill="black"/>
<path d="M32.1379 32.1379H16V48.2759H32.1379V32.1379Z" fill="black"/>
<path d="M128.966 32.1379H112.828V48.2759H128.966V32.1379Z" fill="black"/>
<path d="M177.379 32.1379H161.241V48.2759H177.379V32.1379Z" fill="black"/>
<path d="M209.655 32.1379H193.517V48.2759H209.655V32.1379Z" fill="black"/>
<path d="M241.931 32.1379H225.793V48.2759H241.931V32.1379Z" fill="black"/>
<path d="M290.345 32.1379H274.207V48.2759H290.345V32.1379Z" fill="black"/>
<path d="M306.483 32.1379H290.345V48.2759H306.483V32.1379Z" fill="black"/>
<path d="M354.897 32.1379H338.759V48.2759H354.897V32.1379Z" fill="black"/>
<path d="M387.172 32.1379H371.034V48.2759H387.172V32.1379Z" fill="black"/>
<path d="M484 32.1379H467.862V48.2759H484V32.1379Z" fill="black"/>
<path d="M32.1379 48.2759H16V64.4138H32.1379V48.2759Z" fill="black"/>
<path d="M64.4138 48.2759H48.2759V64.4138H64.4138V48.2759Z" fill="black"/>
<path d="M80.5517 48.2759H64.4138V64.4138H80.5517V48.2759Z" fill="black"/>
<path d="M96.6897 48.2759H80.5517V64.4138H96.6897V48.2759Z" fill="black"/>
<path d="M128.966 48.2759H112.828V64.4138H128.966V48.2759Z" fill="black"/>
<path d="M161.241 48.2759H145.103V64.4138H161.241V48.2759Z" fill="black"/>
<path d="M177.379 48.2759H161.241V64.4138H177.379V48.2759Z" fill="black"/>
<path d="M241.931 48.2759H225.793V64.4138H241.931V48.2759Z" fill="black"/>
<path d="M258.069 48.2759H241.931V64.4138H258.069V48.2759Z" fill="black"/>
<path d="M290.345 48.2759H274.207V64.4138H290.345V48.2759Z" fill="black"/>
<path d="M306.483 48.2759H290.345V64.4138H306.483V48.2759Z" fill="black"/>
<path d="M322.621 48.2759H306.483V64.4138H322.621V48.2759Z" fill="black"/>
<path d="M338.759 48.2759H322.621V64.4138H338.759V48.2759Z" fill="black"/>
<path d="M387.172 48.2759H371.034V64.4138H387.172V48.2759Z" fill="black"/>
<path d="M419.448 48.2759H403.31V64.4138H419.448V48.2759Z" fill="black"/>
<path d="M435.586 48.2759H419.448V64.4138H435.586V48.2759Z" fill="black"/>
<path d="M451.724 48.2759H435.586V64.4138H451.724V48.2759Z" fill="black"/>
<path d="M484 48.2759H467.862V64.4138H484V48.2759Z" fill="black"/>
<path d="M32.1379 64.4138H16V80.5517H32.1379V64.4138Z" fill="black"/>
<path d="M64.4138 64.4138H48.2759V80.5517H64.4138V64.4138Z" fill="black"/>
<path d="M80.5517 64.4138H64.4138V80.5517H80.5517V64.4138Z" fill="black"/>
<path d="M96.6897 64.4138H80.5517V80.5517H96.6897V64.4138Z" fill="black"/>
<path d="M128.966 64.4138H112.828V80.5517H128.966V64.4138Z" fill="black"/>
<path d="M161.241 64.4138H145.103V80.5517H161.241V64.4138Z" fill="black"/>
<path d="M177.379 64.4138H161.241V80.5517H177.379V64.4138Z" fill="black"/>
<path d="M241.931 64.4138H225.793V80.5517H241.931V64.4138Z" fill="black"/>
<path d="M274.207 64.4138H258.069V80.5517H274.207V64.4138Z" fill="black"/>
<path d="M290.345 64.4138H274.207V80.5517H290.345V64.4138Z" fill="black"/>
<path d="M322.621 64.4138H306.483V80.5517H322.621V64.4138Z" fill="black"/>
<path d="M354.897 64.4138H338.759V80.5517H354.897V64.4138Z" fill="black"/>
<path d="M387.172 64.4138H371.034V80.5517H387.172V64.4138Z" fill="black"/>
<path d="M419.448 64.4138H403.31V80.5517H419.448V64.4138Z" fill="black"/>
<path d="M435.586 64.4138H419.448V80.5517H435.586V64.4138Z" fill="black"/>
<path d="M451.724 64.4138H435.586V80.5517H451.724V64.4138Z" fill="black"/>
<path d="M484 64.4138H467.862V80.5517H484V64.4138Z" fill="black"/>
<path d="M32.1379 80.5517H16V96.6897H32.1379V80.5517Z" fill="black"/>
<path d="M64.4138 80.5517H48.2759V96.6897H64.4138V80.5517Z" fill="black"/>
<path d="M80.5517 80.5517H64.4138V96.6897H80.5517V80.5517Z" fill="black"/>
<path d="M96.6897 80.5517H80.5517V96.6897H96.6897V80.5517Z" fill="black"/>
<path d="M128.966 80.5517H112.828V96.6897H128.966V80.5517Z" fill="black"/>
<path d="M258.069 80.5517H241.931V96.6897H258.069V80.5517Z" fill="black"/>
<path d="M290.345 80.5517H274.207V96.6897H290.345V80.5517Z" fill="black"/>
<path d="M306.483 80.5517H290.345V96.6897H306.483V80.5517Z" fill="black"/>
<path d="M387.172 80.5517H371.034V96.6897H387.172V80.5517Z" fill="black"/>
<path d="M419.448 80.5517H403.31V96.6897H419.448V80.5517Z" fill="black"/>
<path d="M435.586 80.5517H419.448V96.6897H435.586V80.5517Z" fill="black"/>
<path d="M451.724 80.5517H435.586V96.6897H451.724V80.5517Z" fill="black"/>
<path d="M484 80.5517H467.862V96.6897H484V80.5517Z" fill="black"/>
<path d="M32.1379 96.6897H16V112.828H32.1379V96.6897Z" fill="black"/>
<path d="M128.966 96.6897H112.828V112.828H128.966V96.6897Z" fill="black"/>
<path d="M161.241 96.6897H145.103V112.828H161.241V96.6897Z" fill="black"/>
<path d="M177.379 96.6897H161.241V112.828H177.379V96.6897Z" fill="black"/>
<path d="M193.517 96.6897H177.379V112.828H193.517V96.6897Z" fill="black"/>
<path d="M209.655 96.6897H193.517V112.828H209.655V96.6897Z" fill="black"/>
<path d="M225.793 96.6897H209.655V112.828H225.793V96.6897Z" fill="black"/>
<path d="M258.069 96.6897H241.931V112.828H258.069V96.6897Z" fill="black"/>
<path d="M290.345 96.6897H274.207V112.828H290.345V96.6897Z" fill="black"/>
<path d="M338.759 96.6897H322.621V112.828H338.759V96.6897Z" fill="black"/>
<path d="M354.897 96.6897H338.759V112.828H354.897V96.6897Z" fill="black"/>
<path d="M387.172 96.6897H371.034V112.828H387.172V96.6897Z" fill="black"/>
<path d="M484 96.6897H467.862V112.828H484V96.6897Z" fill="black"/>
<path d="M32.1379 112.828H16V128.966H32.1379V112.828Z" fill="black"/>
<path d="M48.2759 112.828H32.1379V128.966H48.2759V112.828Z" fill="black"/>
<path d="M64.4138 112.828H48.2759V128.966H64.4138V112.828Z" fill="black"/>
<path d="M80.5517 112.828H64.4138V128.966H80.5517V112.828Z" fill="black"/>
<path d="M96.6897 112.828H80.5517V128.966H96.6897V112.828Z" fill="black"/>
<path d="M112.828 112.828H96.6897V128.966H112.828V112.828Z" fill="black"/>
<path d="M128.966 112.828H112.828V128.966H128.966V112.828Z" fill="black"/>
<path d="M161.241 112.828H145.103V128.966H161.241V112.828Z" fill="black"/>
<path d="M193.517 112.828H177.379V128.966H193.517V112.828Z" fill="black"/>
<path d="M225.793 112.828H209.655V128.966H225.793V112.828Z" fill="black"/>
<path d="M258.069 112.828H241.931V128.966H258.069V112.828Z" fill="black"/>
<path d="M290.345 112.828H274.207V128.966H290.345V112.828Z" fill="black"/>
<path d="M322.621 112.828H306.483V128.966H322.621V112.828Z" fill="black"/>
<path d="M354.897 112.828H338.759V128.966H354.897V112.828Z" fill="black"/>
<path d="M387.172 112.828H371.034V128.966H387.172V112.828Z" fill="black"/>
<path d="M403.31 112.828H387.172V128.966H403.31V112.828Z" fill="black"/>
<path d="M419.448 112.828H403.31V128.966H419.448V112.828Z" fill="black"/>
<path d="M435.586 112.828H419.448V128.966H435.586V112.828Z" fill="black"/>
<path d="M451.724 112.828H435.586V128.966H451.724V112.828Z" fill="black"/>
<path d="M467.862 112.828H451.724V128.966H467.862V112.828Z" fill="black"/>
<path d="M484 112.828H467.862V128.966H484V112.828Z" fill="black"/>
<path d="M161.241 128.966H145.103V145.103H161.241V128.966Z" fill="black"/>
<path d="M177.379 128.966H161.241V145.103H177.379V128.966Z" fill="black"/>
<path d="M209.655 128.966H193.517V145.103H209.655V128.966Z" fill="black"/>
<path d="M225.793 128.966H209.655V145.103H225.793V128.966Z" fill="black"/>
<path d="M274.207 128.966H258.069V145.103H274.207V128.966Z" fill="black"/>
<path d="M290.345 128.966H274.207V145.103H290.345V128.966Z" fill="black"/>
<path d="M306.483 128.966H290.345V145.103H306.483V128.966Z" fill="black"/>
<path d="M322.621 128.966H306.483V145.103H322.621V128.966Z" fill="black"/>
<path d="M338.759 128.966H322.621V145.103H338.759V128.966Z" fill="black"/>
<path d="M32.1379 145.103H16V161.241H32.1379V145.103Z" fill="black"/>
<path d="M48.2759 145.103H32.1379V161.241H48.2759V145.103Z" fill="black"/>
<path d="M80.5517 145.103H64.4138V161.241H80.5517V145.103Z" fill="black"/>
<path d="M128.966 145.103H112.828V161.241H128.966V145.103Z" fill="black"/>
<path d="M145.103 145.103H128.966V161.241H145.103V145.103Z" fill="black"/>
<path d="M258.069 145.103H241.931V161.241H258.069V145.103Z" fill="black"/>
<path d="M371.034 145.103H354.897V161.241H371.034V145.103Z" fill="black"/>
<path d="M387.172 145.103H371.034V161.241H387.172V145.103Z" fill="black"/>
<path d="M403.31 145.103H387.172V161.241H403.31V145.103Z" fill="black"/>
<path d="M435.586 145.103H419.448V161.241H435.586V145.103Z" fill="black"/>
<path d="M451.724 145.103H435.586V161.241H451.724V145.103Z" fill="black"/>
<path d="M484 145.103H467.862V161.241H484V145.103Z" fill="black"/>
<path d="M32.1379 161.241H16V177.379H32.1379V161.241Z" fill="black"/>
<path d="M48.2759 161.241H32.1379V177.379H48.2759V161.241Z" fill="black"/>
<path d="M80.5517 161.241H64.4138V177.379H80.5517V161.241Z" fill="black"/>
<path d="M96.6897 161.241H80.5517V177.379H96.6897V161.241Z" fill="black"/>
<path d="M145.103 161.241H128.966V177.379H145.103V161.241Z" fill="black"/>
<path d="M161.241 161.241H145.103V177.379H161.241V161.241Z" fill="black"/>
<path d="M177.379 161.241H161.241V177.379H177.379V161.241Z" fill="black"/>
<path d="M209.655 161.241H193.517V177.379H209.655V161.241Z" fill="black"/>
<path d="M241.931 161.241H225.793V177.379H241.931V161.241Z" fill="black"/>
<path d="M274.207 161.241H258.069V177.379H274.207V161.241Z" fill="black"/>
<path d="M290.345 161.241H274.207V177.379H290.345V161.241Z" fill="black"/>
<path d="M306.483 161.241H290.345V177.379H306.483V161.241Z" fill="black"/>
<path d="M322.621 161.241H306.483V177.379H322.621V161.241Z" fill="black"/>
<path d="M338.759 161.241H322.621V177.379H338.759V161.241Z" fill="black"/>
<path d="M371.034 161.241H354.897V177.379H371.034V161.241Z" fill="black"/>
<path d="M387.172 161.241H371.034V177.379H387.172V161.241Z" fill="black"/>
<path d="M419.448 161.241H403.31V177.379H419.448V161.241Z" fill="black"/>
<path d="M435.586 161.241H419.448V177.379H435.586V161.241Z" fill="black"/>
<path d="M32.1379 177.379H16V193.517H32.1379V177.379Z" fill="black"/>
<path d="M80.5517 177.379H64.4138V193.517H80.5517V177.379Z" fill="black"/>
<path d="M112.828 177.379H96.6897V193.517H112.828V177.379Z" fill="black"/>
<path d="M128.966 177.379H112.828V193.517H128.966V177.379Z" fill="black"/>
<path d="M145.103 177.379H128.966V193.517H145.103V177.379Z" fill="black"/>
<path d="M161.241 177.379H145.103V193.517H161.241V177.379Z" fill="black"/>
<path d="M177.379 177.379H161.241V193.517H177.379V177.379Z" fill="black"/>
<path d="M193.517 177.379H177.379V193.517H193.517V177.379Z" fill="black"/>
<path d="M225.793 177.379H209.655V193.517H225.793V177.379Z" fill="black"/>
<path d="M241.931 177.379H225.793V193.517H241.931V177.379Z" fill="black"/>
<path d="M258.069 177.379H241.931V193.517H258.069V177.379Z" fill="black"/>
<path d="M274.207 177.379H258.069V193.517H274.207V177.379Z" fill="black"/>
<path d="M290.345 177.379H274.207V193.517H290.345V177.379Z" fill="black"/>
<path d="M306.483 177.379H290.345V193.517H306.483V177.379Z" fill="black"/>
<path d="M338.759 177.379H322.621V193.517H338.759V177.379Z" fill="black"/>
<path d="M354.897 177.379H338.759V193.517H354.897V177.379Z" fill="black"/>
<path d="M371.034 177.379H354.897V193.517H371.034V177.379Z" fill="black"/>
<path d="M387.172 177.379H371.034V193.517H387.172V177.379Z" fill="black"/>
<path d="M435.586 177.379H419.448V193.517H435.586V177.379Z" fill="black"/>
<path d="M48.2759 193.517H32.1379V209.655H48.2759V193.517Z" fill="black"/>
<path d="M64.4138 193.517H48.2759V209.655H64.4138V193.517Z" fill="black"/>
<path d="M145.103 193.517H128.966V209.655H145.103V193.517Z" fill="black"/>
<path d="M161.241 193.517H145.103V209.655H161.241V193.517Z" fill="black"/>
<path d="M290.345 193.517H274.207V209.655H290.345V193.517Z" fill="black"/>
<path d="M322.621 193.517H306.483V209.655H322.621V193.517Z" fill="black"/>
<path d="M338.759 193.517H322.621V209.655H338.759V193.517Z" fill="black"/>
<path d="M354.897 193.517H338.759V209.655H354.897V193.517Z" fill="black"/>
<path d="M371.034 193.517H354.897V209.655H371.034V193.517Z" fill="black"/>
<path d="M387.172 193.517H371.034V209.655H387.172V193.517Z" fill="black"/>
<path d="M403.31 193.517H387.172V209.655H403.31V193.517Z" fill="black"/>
<path d="M451.724 193.517H435.586V209.655H451.724V193.517Z" fill="black"/>
<path d="M467.862 193.517H451.724V209.655H467.862V193.517Z" fill="black"/>
<path d="M32.1379 209.655H16V225.793H32.1379V209.655Z" fill="black"/>
<path d="M48.2759 209.655H32.1379V225.793H48.2759V209.655Z" fill="black"/>
<path d="M64.4138 209.655H48.2759V225.793H64.4138V209.655Z" fill="black"/>
<path d="M128.966 209.655H112.828V225.793H128.966V209.655Z" fill="black"/>
<path d="M145.103 209.655H128.966V225.793H145.103V209.655Z" fill="black"/>
<path d="M161.241 209.655H145.103V225.793H161.241V209.655Z" fill="black"/>
<path d="M193.517 209.655H177.379V225.793H193.517V209.655Z" fill="black"/>
<path d="M209.655 209.655H193.517V225.793H209.655V209.655Z" fill="black"/>
<path d="M274.207 209.655H258.069V225.793H274.207V209.655Z" fill="black"/>
<path d="M290.345 209.655H274.207V225.793H290.345V209.655Z" fill="black"/>
<path d="M354.897 209.655H338.759V225.793H354.897V209.655Z" fill="black"/>
<path d="M419.448 209.655H403.31V225.793H419.448V209.655Z" fill="black"/>
<path d="M451.724 209.655H435.586V225.793H451.724V209.655Z" fill="black"/>
<path d="M32.1379 225.793H16V241.931H32.1379V225.793Z" fill="black"/>
<path d="M48.2759 225.793H32.1379V241.931H48.2759V225.793Z" fill="black"/>
<path d="M112.828 225.793H96.6897V241.931H112.828V225.793Z" fill="black"/>
<path d="M161.241 225.793H145.103V241.931H161.241V225.793Z" fill="black"/>
<path d="M177.379 225.793H161.241V241.931H177.379V225.793Z" fill="black"/>
<path d="M193.517 225.793H177.379V241.931H193.517V225.793Z" fill="black"/>
<path d="M258.069 225.793H241.931V241.931H258.069V225.793Z" fill="black"/>
<path d="M322.621 225.793H306.483V241.931H322.621V225.793Z" fill="black"/>
<path d="M338.759 225.793H322.621V241.931H338.759V225.793Z" fill="black"/>
<path d="M354.897 225.793H338.759V241.931H354.897V225.793Z" fill="black"/>
<path d="M403.31 225.793H387.172V241.931H403.31V225.793Z" fill="black"/>
<path d="M435.586 225.793H419.448V241.931H435.586V225.793Z" fill="black"/>
<path d="M484 225.793H467.862V241.931H484V225.793Z" fill="black"/>
<path d="M32.1379 241.931H16V258.069H32.1379V241.931Z" fill="black"/>
<path d="M80.5517 241.931H64.4138V258.069H80.5517V241.931Z" fill="black"/>
<path d="M96.6897 241.931H80.5517V258.069H96.6897V241.931Z" fill="black"/>
<path d="M128.966 241.931H112.828V258.069H128.966V241.931Z" fill="black"/>
<path d="M177.379 241.931H161.241V258.069H177.379V241.931Z" fill="black"/>
<path d="M225.793 241.931H209.655V258.069H225.793V241.931Z" fill="black"/>
<path d="M241.931 241.931H225.793V258.069H241.931V241.931Z" fill="black"/>
<path d="M274.207 241.931H258.069V258.069H274.207V241.931Z" fill="black"/>
<path d="M290.345 241.931H274.207V258.069H290.345V241.931Z" fill="black"/>
<path d="M306.483 241.931H290.345V258.069H306.483V241.931Z" fill="black"/>
<path d="M322.621 241.931H306.483V258.069H322.621V241.931Z" fill="black"/>
<path d="M338.759 241.931H322.621V258.069H338.759V241.931Z" fill="black"/>
<path d="M354.897 241.931H338.759V258.069H354.897V241.931Z" fill="black"/>
<path d="M387.172 241.931H371.034V258.069H387.172V241.931Z" fill="black"/>
<path d="M403.31 241.931H387.172V258.069H403.31V241.931Z" fill="black"/>
<path d="M451.724 241.931H435.586V258.069H451.724V241.931Z" fill="black"/>
<path d="M32.1379 258.069H16V274.207H32.1379V258.069Z" fill="black"/>
<path d="M80.5517 258.069H64.4138V274.207H80.5517V258.069Z" fill="black"/>
<path d="M112.828 258.069H96.6897V274.207H112.828V258.069Z" fill="black"/>
<path d="M145.103 258.069H128.966V274.207H145.103V258.069Z" fill="black"/>
<path d="M161.241 258.069H145.103V274.207H161.241V258.069Z" fill="black"/>
<path d="M177.379 258.069H161.241V274.207H177.379V258.069Z" fill="black"/>
<path d="M225.793 258.069H209.655V274.207H225.793V258.069Z" fill="black"/>
<path d="M258.069 258.069H241.931V274.207H258.069V258.069Z" fill="black"/>
<path d="M290.345 258.069H274.207V274.207H290.345V258.069Z" fill="black"/>
<path d="M322.621 258.069H306.483V274.207H322.621V258.069Z" fill="black"/>
<path d="M371.034 258.069H354.897V274.207H371.034V258.069Z" fill="black"/>
<path d="M387.172 258.069H371.034V274.207H387.172V258.069Z" fill="black"/>
<path d="M403.31 258.069H387.172V274.207H403.31V258.069Z" fill="black"/>
<path d="M467.862 258.069H451.724V274.207H467.862V258.069Z" fill="black"/>
<path d="M48.2759 274.207H32.1379V290.345H48.2759V274.207Z" fill="black"/>
<path d="M64.4138 274.207H48.2759V290.345H64.4138V274.207Z" fill="black"/>
<path d="M96.6897 274.207H80.5517V290.345H96.6897V274.207Z" fill="black"/>
<path d="M112.828 274.207H96.6897V290.345H112.828V274.207Z" fill="black"/>
<path d="M128.966 274.207H112.828V290.345H128.966V274.207Z" fill="black"/>
<path d="M145.103 274.207H128.966V290.345H145.103V274.207Z" fill="black"/>
<path d="M193.517 274.207H177.379V290.345H193.517V274.207Z" fill="black"/>
<path d="M209.655 274.207H193.517V290.345H209.655V274.207Z" fill="black"/>
<path d="M241.931 274.207H225.793V290.345H241.931V274.207Z" fill="black"/>
<path d="M258.069 274.207H241.931V290.345H258.069V274.207Z" fill="black"/>
<path d="M274.207 274.207H258.069V290.345H274.207V274.207Z" fill="black"/>
<path d="M290.345 274.207H274.207V290.345H290.345V274.207Z" fill="black"/>
<path d="M306.483 274.207H290.345V290.345H306.483V274.207Z" fill="black"/>
<path d="M322.621 274.207H306.483V290.345H322.621V274.207Z" fill="black"/>
<path d="M354.897 274.207H338.759V290.345H354.897V274.207Z" fill="black"/>
<path d="M371.034 274.207H354.897V290.345H371.034V274.207Z" fill="black"/>
<path d="M419.448 274.207H403.31V290.345H419.448V274.207Z" fill="black"/>
<path d="M32.1379 290.345H16V306.483H32.1379V290.345Z" fill="black"/>
<path d="M80.5517 290.345H64.4138V306.483H80.5517V290.345Z" fill="black"/>
<path d="M96.6897 290.345H80.5517V306.483H96.6897V290.345Z" fill="black"/>
<path d="M112.828 290.345H96.6897V306.483H112.828V290.345Z" fill="black"/>
<path d="M145.103 290.345H128.966V306.483H145.103V290.345Z" fill="black"/>
<path d="M161.241 290.345H145.103V306.483H161.241V290.345Z" fill="black"/>
<path d="M193.517 290.345H177.379V306.483H193.517V290.345Z" fill="black"/>
<path d="M225.793 290.345H209.655V306.483H225.793V290.345Z" fill="black"/>
<path d="M241.931 290.345H225.793V306.483H241.931V290.345Z" fill="black"/>
<path d="M290.345 290.345H274.207V306.483H290.345V290.345Z" fill="black"/>
<path d="M306.483 290.345H290.345V306.483H306.483V290.345Z" fill="black"/>
<path d="M322.621 290.345H306.483V306.483H322.621V290.345Z" fill="black"/>
<path d="M387.172 290.345H371.034V306.483H387.172V290.345Z" fill="black"/>
<path d="M451.724 290.345H435.586V306.483H451.724V290.345Z" fill="black"/>
<path d="M467.862 290.345H451.724V306.483H467.862V290.345Z" fill="black"/>
<path d="M484 290.345H467.862V306.483H484V290.345Z" fill="black"/>
<path d="M32.1379 306.483H16V322.621H32.1379V306.483Z" fill="black"/>
<path d="M48.2759 306.483H32.1379V322.621H48.2759V306.483Z" fill="black"/>
<path d="M64.4138 306.483H48.2759V322.621H64.4138V306.483Z" fill="black"/>
<path d="M128.966 306.483H112.828V322.621H128.966V306.483Z" fill="black"/>
<path d="M145.103 306.483H128.966V322.621H145.103V306.483Z" fill="black"/>
<path d="M161.241 306.483H145.103V322.621H161.241V306.483Z" fill="black"/>
<path d="M354.897 306.483H338.759V322.621H354.897V306.483Z" fill="black"/>
<path d="M371.034 306.483H354.897V322.621H371.034V306.483Z" fill="black"/>
<path d="M403.31 306.483H387.172V322.621H403.31V306.483Z" fill="black"/>
<path d="M419.448 306.483H403.31V322.621H419.448V306.483Z" fill="black"/>
<path d="M435.586 306.483H419.448V322.621H435.586V306.483Z" fill="black"/>
<path d="M451.724 306.483H435.586V322.621H451.724V306.483Z" fill="black"/>
<path d="M467.862 306.483H451.724V322.621H467.862V306.483Z" fill="black"/>
<path d="M484 306.483H467.862V322.621H484V306.483Z" fill="black"/>
<path d="M32.1379 322.621H16V338.759H32.1379V322.621Z" fill="black"/>
<path d="M64.4138 322.621H48.2759V338.759H64.4138V322.621Z" fill="black"/>
<path d="M80.5517 322.621H64.4138V338.759H80.5517V322.621Z" fill="black"/>
<path d="M96.6897 322.621H80.5517V338.759H96.6897V322.621Z" fill="black"/>
<path d="M112.828 322.621H96.6897V338.759H112.828V322.621Z" fill="black"/>
<path d="M177.379 322.621H161.241V338.759H177.379V322.621Z" fill="black"/>
<path d="M225.793 322.621H209.655V338.759H225.793V322.621Z" fill="black"/>
<path d="M241.931 322.621H225.793V338.759H241.931V322.621Z" fill="black"/>
<path d="M258.069 322.621H241.931V338.759H258.069V322.621Z" fill="black"/>
<path d="M274.207 322.621H258.069V338.759H274.207V322.621Z" fill="black"/>
<path d="M290.345 322.621H274.207V338.759H290.345V322.621Z" fill="black"/>
<path d="M338.759 322.621H322.621V338.759H338.759V322.621Z" fill="black"/>
<path d="M354.897 322.621H338.759V338.759H354.897V322.621Z" fill="black"/>
<path d="M387.172 322.621H371.034V338.759H387.172V322.621Z" fill="black"/>
<path d="M48.2759 338.759H32.1379V354.897H48.2759V338.759Z" fill="black"/>
<path d="M64.4138 338.759H48.2759V354.897H64.4138V338.759Z" fill="black"/>
<path d="M112.828 338.759H96.6897V354.897H112.828V338.759Z" fill="black"/>
<path d="M128.966 338.759H112.828V354.897H128.966V338.759Z" fill="black"/>
<path d="M145.103 338.759H128.966V354.897H145.103V338.759Z" fill="black"/>
<path d="M177.379 338.759H161.241V354.897H177.379V338.759Z" fill="black"/>
<path d="M193.517 338.759H177.379V354.897H193.517V338.759Z" fill="black"/>
<path d="M209.655 338.759H193.517V354.897H209.655V338.759Z" fill="black"/>
<path d="M241.931 338.759H225.793V354.897H241.931V338.759Z" fill="black"/>
<path d="M258.069 338.759H241.931V354.897H258.069V338.759Z" fill="black"/>
<path d="M274.207 338.759H258.069V354.897H274.207V338.759Z" fill="black"/>
<path d="M290.345 338.759H274.207V354.897H290.345V338.759Z" fill="black"/>
<path d="M306.483 338.759H290.345V354.897H306.483V338.759Z" fill="black"/>
<path d="M322.621 338.759H306.483V354.897H322.621V338.759Z" fill="black"/>
<path d="M338.759 338.759H322.621V354.897H338.759V338.759Z" fill="black"/>
<path d="M354.897 338.759H338.759V354.897H354.897V338.759Z" fill="black"/>
<path d="M371.034 338.759H354.897V354.897H371.034V338.759Z" fill="black"/>
<path d="M387.172 338.759H371.034V354.897H387.172V338.759Z" fill="black"/>
<path d="M403.31 338.759H387.172V354.897H403.31V338.759Z" fill="black"/>
<path d="M419.448 338.759H403.31V354.897H419.448V338.759Z" fill="black"/>
<path d="M451.724 338.759H435.586V354.897H451.724V338.759Z" fill="black"/>
<path d="M467.862 338.759H451.724V354.897H467.862V338.759Z" fill="black"/>
<path d="M484 338.759H467.862V354.897H484V338.759Z" fill="black"/>
<path d="M177.379 354.897H161.241V371.034H177.379V354.897Z" fill="black"/>
<path d="M209.655 354.897H193.517V371.034H209.655V354.897Z" fill="black"/>
<path d="M290.345 354.897H274.207V371.034H290.345V354.897Z" fill="black"/>
<path d="M306.483 354.897H290.345V371.034H306.483V354.897Z" fill="black"/>
<path d="M322.621 354.897H306.483V371.034H322.621V354.897Z" fill="black"/>
<path d="M354.897 354.897H338.759V371.034H354.897V354.897Z" fill="black"/>
<path d="M419.448 354.897H403.31V371.034H419.448V354.897Z" fill="black"/>
<path d="M435.586 354.897H419.448V371.034H435.586V354.897Z" fill="black"/>
<path d="M32.1379 371.034H16V387.172H32.1379V371.034Z" fill="black"/>
<path d="M48.2759 371.034H32.1379V387.172H48.2759V371.034Z" fill="black"/>
<path d="M64.4138 371.034H48.2759V387.172H64.4138V371.034Z" fill="black"/>
<path d="M80.5517 371.034H64.4138V387.172H80.5517V371.034Z" fill="black"/>
<path d="M96.6897 371.034H80.5517V387.172H96.6897V371.034Z" fill="black"/>
<path d="M112.828 371.034H96.6897V387.172H112.828V371.034Z" fill="black"/>
<path d="M128.966 371.034H112.828V387.172H128.966V371.034Z" fill="black"/>
<path d="M161.241 371.034H145.103V387.172H161.241V371.034Z" fill="black"/>
<path d="M177.379 371.034H161.241V387.172H177.379V371.034Z" fill="black"/>
<path d="M241.931 371.034H225.793V387.172H241.931V371.034Z" fill="black"/>
<path d="M258.069 371.034H241.931V387.172H258.069V371.034Z" fill="black"/>
<path d="M338.759 371.034H322.621V387.172H338.759V371.034Z" fill="black"/>
<path d="M354.897 371.034H338.759V387.172H354.897V371.034Z" fill="black"/>
<path d="M387.172 371.034H371.034V387.172H387.172V371.034Z" fill="black"/>
<path d="M419.448 371.034H403.31V387.172H419.448V371.034Z" fill="black"/>
<path d="M32.1379 387.172H16V403.31H32.1379V387.172Z" fill="black"/>
<path d="M128.966 387.172H112.828V403.31H128.966V387.172Z" fill="black"/>
<path d="M177.379 387.172H161.241V403.31H177.379V387.172Z" fill="black"/>
<path d="M209.655 387.172H193.517V403.31H209.655V387.172Z" fill="black"/>
<path d="M241.931 387.172H225.793V403.31H241.931V387.172Z" fill="black"/>
<path d="M274.207 387.172H258.069V403.31H274.207V387.172Z" fill="black"/>
<path d="M306.483 387.172H290.345V403.31H306.483V387.172Z" fill="black"/>
<path d="M338.759 387.172H322.621V403.31H338.759V387.172Z" fill="black"/>
<path d="M354.897 387.172H338.759V403.31H354.897V387.172Z" fill="black"/>
<path d="M419.448 387.172H403.31V403.31H419.448V387.172Z" fill="black"/>
<path d="M451.724 387.172H435.586V403.31H451.724V387.172Z" fill="black"/>
<path d="M467.862 387.172H451.724V403.31H467.862V387.172Z" fill="black"/>
<path d="M484 387.172H467.862V403.31H484V387.172Z" fill="black"/>
<path d="M32.1379 403.31H16V419.448H32.1379V403.31Z" fill="black"/>
<path d="M64.4138 403.31H48.2759V419.448H64.4138V403.31Z" fill="black"/>
<path d="M80.5517 403.31H64.4138V419.448H80.5517V403.31Z" fill="black"/>
<path d="M96.6897 403.31H80.5517V419.448H96.6897V403.31Z" fill="black"/>
<path d="M128.966 403.31H112.828V419.448H128.966V403.31Z" fill="black"/>
<path d="M177.379 403.31H161.241V419.448H177.379V403.31Z" fill="black"/>
<path d="M209.655 403.31H193.517V419.448H209.655V403.31Z" fill="black"/>
<path d="M274.207 403.31H258.069V419.448H274.207V403.31Z" fill="black"/>
<path d="M290.345 403.31H274.207V419.448H290.345V403.31Z" fill="black"/>
<path d="M354.897 403.31H338.759V419.448H354.897V403.31Z" fill="black"/>
<path d="M371.034 403.31H354.897V419.448H371.034V403.31Z" fill="black"/>
<path d="M387.172 403.31H371.034V419.448H387.172V403.31Z" fill="black"/>
<path d="M403.31 403.31H387.172V419.448H403.31V403.31Z" fill="black"/>
<path d="M419.448 403.31H403.31V419.448H419.448V403.31Z" fill="black"/>
<path d="M435.586 403.31H419.448V419.448H435.586V403.31Z" fill="black"/>
<path d="M467.862 403.31H451.724V419.448H467.862V403.31Z" fill="black"/>
<path d="M32.1379 419.448H16V435.586H32.1379V419.448Z" fill="black"/>
<path d="M64.4138 419.448H48.2759V435.586H64.4138V419.448Z" fill="black"/>
<path d="M80.5517 419.448H64.4138V435.586H80.5517V419.448Z" fill="black"/>
<path d="M96.6897 419.448H80.5517V435.586H96.6897V419.448Z" fill="black"/>
<path d="M128.966 419.448H112.828V435.586H128.966V419.448Z" fill="black"/>
<path d="M161.241 419.448H145.103V435.586H161.241V419.448Z" fill="black"/>
<path d="M225.793 419.448H209.655V435.586H225.793V419.448Z" fill="black"/>
<path d="M290.345 419.448H274.207V435.586H290.345V419.448Z" fill="black"/>
<path d="M306.483 419.448H290.345V435.586H306.483V419.448Z" fill="black"/>
<path d="M354.897 419.448H338.759V435.586H354.897V419.448Z" fill="black"/>
<path d="M371.034 419.448H354.897V435.586H371.034V419.448Z" fill="black"/>
<path d="M387.172 419.448H371.034V435.586H387.172V419.448Z" fill="black"/>
<path d="M403.31 419.448H387.172V435.586H403.31V419.448Z" fill="black"/>
<path d="M435.586 419.448H419.448V435.586H435.586V419.448Z" fill="black"/>
<path d="M467.862 419.448H451.724V435.586H467.862V419.448Z" fill="black"/>
<path d="M32.1379 435.586H16V451.724H32.1379V435.586Z" fill="black"/>
<path d="M64.4138 435.586H48.2759V451.724H64.4138V435.586Z" fill="black"/>
<path d="M80.5517 435.586H64.4138V451.724H80.5517V435.586Z" fill="black"/>
<path d="M96.6897 435.586H80.5517V451.724H96.6897V435.586Z" fill="black"/>
<path d="M128.966 435.586H112.828V451.724H128.966V435.586Z" fill="black"/>
<path d="M193.517 435.586H177.379V451.724H193.517V435.586Z" fill="black"/>
<path d="M225.793 435.586H209.655V451.724H225.793V435.586Z" fill="black"/>
<path d="M241.931 435.586H225.793V451.724H241.931V435.586Z" fill="black"/>
<path d="M258.069 435.586H241.931V451.724H258.069V435.586Z" fill="black"/>
<path d="M306.483 435.586H290.345V451.724H306.483V435.586Z" fill="black"/>
<path d="M322.621 435.586H306.483V451.724H322.621V435.586Z" fill="black"/>
<path d="M338.759 435.586H322.621V451.724H338.759V435.586Z" fill="black"/>
<path d="M354.897 435.586H338.759V451.724H354.897V435.586Z" fill="black"/>
<path d="M371.034 435.586H354.897V451.724H371.034V435.586Z" fill="black"/>
<path d="M419.448 435.586H403.31V451.724H419.448V435.586Z" fill="black"/>
<path d="M451.724 435.586H435.586V451.724H451.724V435.586Z" fill="black"/>
<path d="M32.1379 451.724H16V467.862H32.1379V451.724Z" fill="black"/>
<path d="M128.966 451.724H112.828V467.862H128.966V451.724Z" fill="black"/>
<path d="M161.241 451.724H145.103V467.862H161.241V451.724Z" fill="black"/>
<path d="M193.517 451.724H177.379V467.862H193.517V451.724Z" fill="black"/>
<path d="M241.931 451.724H225.793V467.862H241.931V451.724Z" fill="black"/>
<path d="M258.069 451.724H241.931V467.862H258.069V451.724Z" fill="black"/>
<path d="M274.207 451.724H258.069V467.862H274.207V451.724Z" fill="black"/>
<path d="M290.345 451.724H274.207V467.862H290.345V451.724Z" fill="black"/>
<path d="M306.483 451.724H290.345V467.862H306.483V451.724Z" fill="black"/>
<path d="M371.034 451.724H354.897V467.862H371.034V451.724Z" fill="black"/>
<path d="M387.172 451.724H371.034V467.862H387.172V451.724Z" fill="black"/>
<path d="M419.448 451.724H403.31V467.862H419.448V451.724Z" fill="black"/>
<path d="M435.586 451.724H419.448V467.862H435.586V451.724Z" fill="black"/>
<path d="M467.862 451.724H451.724V467.862H467.862V451.724Z" fill="black"/>
<path d="M484 451.724H467.862V467.862H484V451.724Z" fill="black"/>
<path d="M32.1379 467.862H16V484H32.1379V467.862Z" fill="black"/>
<path d="M48.2759 467.862H32.1379V484H48.2759V467.862Z" fill="black"/>
<path d="M64.4138 467.862H48.2759V484H64.4138V467.862Z" fill="black"/>
<path d="M80.5517 467.862H64.4138V484H80.5517V467.862Z" fill="black"/>
<path d="M96.6897 467.862H80.5517V484H96.6897V467.862Z" fill="black"/>
<path d="M112.828 467.862H96.6897V484H112.828V467.862Z" fill="black"/>
<path d="M128.966 467.862H112.828V484H128.966V467.862Z" fill="black"/>
<path d="M161.241 467.862H145.103V484H161.241V467.862Z" fill="black"/>
<path d="M177.379 467.862H161.241V484H177.379V467.862Z" fill="black"/>
<path d="M209.655 467.862H193.517V484H209.655V467.862Z" fill="black"/>
<path d="M241.931 467.862H225.793V484H241.931V467.862Z" fill="black"/>
<path d="M258.069 467.862H241.931V484H258.069V467.862Z" fill="black"/>
<path d="M371.034 467.862H354.897V484H371.034V467.862Z" fill="black"/>
<path d="M419.448 467.862H403.31V484H419.448V467.862Z" fill="black"/>
<path d="M451.724 467.862H435.586V484H451.724V467.862Z" fill="black"/>
</g>
<defs>
<clipPath id="clip0_33_2">
<rect width="500" height="500" fill="white"/>
</clipPath>
</defs>
</svg>
