<svg width="36" height="29" viewBox="0 0 36 29" fill="none" xmlns="http://www.w3.org/2000/svg">
<path d="M25.746 1.62944L25.746 1.62958L25.7571 1.63563C25.9626 1.74789 26.1432 1.90053 26.2882 2.08435C26.4331 2.26817 26.5393 2.47937 26.6005 2.70526C26.6616 2.93114 26.6765 3.16705 26.644 3.3988C26.6116 3.63054 26.5326 3.85336 26.4118 4.05383L26.4118 4.05379L26.4072 4.0617L13.3194 26.7062C13.3191 26.7068 13.3187 26.7074 13.3184 26.708C13.1592 26.9772 12.9328 27.2005 12.6615 27.3562C12.3895 27.5123 12.0816 27.595 11.768 27.5964L11.7583 27.5964L11.7487 27.5968C11.4481 27.6097 11.1505 27.5329 10.8938 27.3763L10.8871 27.3723L10.8804 27.3684C10.6768 27.2528 10.4982 27.098 10.3548 26.913C10.2114 26.728 10.1061 26.5165 10.045 26.2906C9.98382 26.0648 9.96804 25.8291 9.99852 25.5971C10.029 25.3651 10.1051 25.1414 10.2226 24.939L10.223 24.9383L23.313 2.28994L23.3147 2.2869C23.4304 2.08347 23.5853 1.90493 23.7704 1.76161C23.9555 1.61828 24.1672 1.51301 24.3932 1.45187C24.6193 1.39073 24.8552 1.37495 25.0874 1.40543C25.3196 1.43591 25.5435 1.51205 25.746 1.62944ZM15.4504 8.72724L15.4497 8.74745L15.4505 8.76765C15.5344 10.7292 14.8366 12.6439 13.5101 14.092C12.1887 15.5346 10.3508 16.3968 8.39674 16.4915C6.43916 16.3967 4.5973 15.5353 3.27002 14.0934C1.93762 12.6459 1.23181 10.7307 1.30639 8.76525L1.30706 8.74744L1.30647 8.72964C1.24116 6.77006 1.95111 4.86366 3.28254 3.42362C4.60882 1.98915 6.44535 1.13258 8.39674 1.03772C10.3446 1.13252 12.1771 1.98998 13.4975 3.42503C14.823 4.86565 15.525 6.77155 15.4504 8.72724ZM8.33931 12.9078L8.39681 12.9144L8.4543 12.9078C9.46022 12.7912 10.3805 12.2855 11.018 11.4989C11.645 10.7252 11.9493 9.74024 11.8689 8.74899C11.9603 7.75395 11.6596 6.76174 11.0296 5.98433C10.3891 5.19402 9.4608 4.69043 8.44893 4.58424L8.39675 4.57876L8.34456 4.58424C7.33103 4.69059 6.40021 5.19194 5.75393 5.97968C5.1169 6.75614 4.80695 7.74916 4.88842 8.74893C4.81774 9.74489 5.13115 10.7308 5.76523 11.5036C6.40855 12.2878 7.33158 12.7912 8.33931 12.9078ZM21.2163 20.2384L21.2172 20.2182L21.2164 20.198C21.1418 18.2423 21.8438 16.3364 23.1693 14.8958C24.4897 13.4608 26.3223 12.6033 28.2701 12.5085C30.2215 12.6034 32.058 13.4599 33.3843 14.8944C34.7157 16.3344 35.4257 18.2408 35.3604 20.2004L35.3598 20.2182L35.3604 20.236C35.435 22.2014 34.7292 24.1167 33.3968 25.5642C32.0695 27.0061 30.2277 27.8675 28.2701 27.9623C26.316 27.8676 24.4781 27.0054 23.1567 25.5628C21.8302 24.1147 21.1324 22.1999 21.2163 20.2384ZM28.2125 24.3785L28.27 24.3852L28.3275 24.3786C29.3352 24.262 30.2583 23.7586 30.9016 22.9744C31.5357 22.2016 31.8491 21.2157 31.7784 20.2197C31.8599 19.2199 31.5499 18.2269 30.9129 17.4505C30.2666 16.6627 29.3358 16.1614 28.3223 16.055L28.2674 16.0493L28.2125 16.0556C27.2066 16.1722 26.2863 16.6779 25.6489 17.4645C25.0212 18.2389 24.717 19.2249 24.7982 20.2171C24.717 21.2092 25.0212 22.1952 25.6489 22.9697C26.2863 23.7563 27.2066 24.262 28.2125 24.3785Z" fill="#0066FF" stroke="#0066FF"/>
</svg>
